<?xml version="1.0" encoding="UTF-8" standalone="no"?>
<!-- Created with Inkscape (http://www.inkscape.org/) -->

<svg
   width="178.77859mm"
   height="175.86467mm"
   viewBox="0 0 178.77859 175.86467"
   version="1.1"
   id="svg1"
   xml:space="preserve"
   xmlns:xlink="http://www.w3.org/1999/xlink"
   xmlns="http://www.w3.org/2000/svg"
   xmlns:svg="http://www.w3.org/2000/svg"><defs
     id="defs1"><linearGradient
       id="linearGradient98"><stop
         style="stop-color:#9929ea;stop-opacity:1;"
         offset="0"
         id="stop98" /><stop
         style="stop-color:#5808fb;stop-opacity:1;"
         offset="0.88348085"
         id="stop100" /></linearGradient><linearGradient
       id="linearGradient95"><stop
         style="stop-color:#d9d9bc;stop-opacity:1;"
         offset="0"
         id="stop96" /><stop
         style="stop-color:#5d97d3;stop-opacity:0;"
         offset="1"
         id="stop97" /></linearGradient><linearGradient
       xlink:href="#linearGradient95"
       id="linearGradient97"
       x1="15.26415"
       y1="154.76537"
       x2="194.04276"
       y2="154.76537"
       gradientUnits="userSpaceOnUse" /><linearGradient
       xlink:href="#linearGradient98"
       id="linearGradient99"
       x1="74.080536"
       y1="238.76387"
       x2="135.22641"
       y2="70.766937"
       gradientUnits="userSpaceOnUse" /></defs><g
     id="layer1"
     transform="translate(-15.26415,-66.833038)"><path
       id="pjd5q583b"
       d="M 60.467997,155.00544 C 35.650081,106.77189 15.303623,67.190221 15.277164,67.05793 c -0.05292,-0.105834 10.00125,-0.211667 22.357292,-0.211667 l 22.436666,0.02646 20.6375,38.787917 c 11.350625,21.32542 21.510618,40.48125 22.568958,42.51855 2.16958,4.15395 2.54,4.65666 3.01625,4.18041 0.18521,-0.18521 2.06375,-3.70416 4.18041,-7.80521 2.11667,-4.1275 11.98563,-23.28333 21.96042,-42.59791 l 18.12396,-35.083757 21.77521,-0.02646 c 11.98562,0 21.74875,0.105833 21.69583,0.211667 -0.0529,0.185208 -88.34437,175.52459 -88.42375,175.63042 -0.0265,0.0265 -20.319996,-39.42291 -45.137913,-87.68291 z m 48.233543,59.79583 c 1.42875,-2.8575 3.20145,-6.35 3.94229,-7.72583 2.38125,-4.445 12.09145,-23.6273 28.31041,-55.82709 5.31813,-10.55687 11.08604,-21.98687 12.83229,-25.4 11.08605,-21.72229 24.73855,-48.736254 24.63271,-48.815629 -0.0529,-0.07938 -5.34458,-0.132291 -11.72104,-0.132291 -9.2075,-0.02646 -11.64167,0.05292 -11.82687,0.3175 -0.74084,1.164166 -60.801249,120.86167 -60.801249,121.15271 0,0.21167 0.661458,1.56105 1.42875,2.9898 1.217083,2.24895 1.455208,2.54 1.693333,2.11666 0.132292,-0.26458 1.42875,-2.75166 2.831036,-5.52979 1.42875,-2.75167 4.36563,-8.46667 6.56167,-12.7 l 3.94229,-7.67292 0.0529,-2.77812 c 0.0265,-2.51354 0.10583,-2.88396 0.74083,-4.02167 0.79375,-1.29646 2.48709,-2.72521 3.6248,-2.98979 0.55562,-0.15875 0.95249,-0.74083 2.22249,-3.28083 0.82021,-1.69334 2.56646,-5.10646 3.83646,-7.56709 1.29646,-2.48708 4.33917,-8.41375 6.77333,-13.2027 4.41854,-8.67834 4.445,-8.7048 4.15396,-9.81605 -0.3175,-1.27 -0.0265,-3.62479 0.60854,-4.86833 0.635,-1.19062 2.54,-2.91042 3.59834,-3.22792 1.08479,-0.3175 0,1.64042 10.84791,-19.73791 l 6.61459,-13.017509 -0.21167,-1.402291 c -0.23813,-1.481667 0.0794,-3.466042 0.71437,-4.709584 1.0848,-2.090208 3.81,-3.704166 6.24417,-3.704166 2.43417,0 5.29167,1.666875 6.35,3.677708 0.74083,1.42875 0.9525,3.148542 0.66146,4.841875 -0.44979,2.434167 -1.87854,4.206875 -4.15396,5.23875 -0.79375,0.343958 -1.19062,0.978958 -3.36021,5.159377 -1.34937,2.61938 -3.83646,7.51417 -5.55625,10.84792 -9.07521,17.62125 -8.70479,16.8275 -8.38729,17.51542 0.15875,0.34396 0.29104,1.13771 0.29104,1.74625 -0.0265,2.75166 -1.53458,5.21229 -3.99521,6.45583 -0.89958,0.44979 -1.61395,1.00542 -1.7727,1.40229 -0.15875,0.37042 -1.42875,2.8575 -2.83105,5.55625 -1.40229,2.69875 -5.00062,9.68375 -7.96395,15.5575 l -5.3975,10.63625 0.29104,1.16417 c 0.76729,3.04271 -1.29646,6.77333 -4.47146,8.06979 -0.84667,0.37042 -0.82021,0.29104 -9.44562,17.35667 -2.72521,5.3975 -5.68854,11.13896 -6.56167,12.80583 l -1.5875,3.04271 1.42875,2.83104 c 0.84667,1.71979 1.5875,2.8575 1.82563,2.8575 0.26458,0 1.34937,-1.905 2.98979,-5.21229 z M 94.625706,175.16669 c 3.042708,-6.00605 5.529784,-11.05959 5.529784,-11.2448 0,-0.1852 -10.133534,-19.84375 -22.516034,-43.6827 l -22.5425,-43.33876 h -11.7475 c -11.1125,0 -11.773959,0.02646 -11.615209,0.47625 0.238125,0.582083 55.059792,106.97105 55.932917,108.50563 0.608542,1.11125 0.687917,1.13771 1.031875,0.66146 0.211667,-0.26458 2.8575,-5.3975 5.926667,-11.37708 z"
       style="fill:url(#linearGradient99);stroke:url(#linearGradient97);stroke-width:0.0264583" /></g></svg>
